HIERARCHY
ROOT Hips
{
 OFFSET 0.000000 0.000000 0.000000
 CHANNELS 6 Xposition Yposition Zposition Yrotation Xrotation Zrotation
 JOINT Chest
 {
  OFFSET 0.000000 10.388337 0.005184
  CHANNELS 3 Yrotation Xrotation Zrotation
  JOINT Chest2
  {
   OFFSET 0.000000 10.458247 -0.010579
   CHANNELS 3 Yrotation Xrotation Zrotation
   JOINT Chest3
   {
    OFFSET 0.000000 10.415828 0.000000
    CHANNELS 3 Yrotation Xrotation Zrotation
    JOINT Chest4
    {
     OFFSET 0.000000 10.405206 0.000000
     CHANNELS 3 Yrotation Xrotation Zrotation
     JOINT Neck
     {
      OFFSET 0.000000 15.720090 0.000000
      CHANNELS 3 Yrotation Xrotation Zrotation
      JOINT Head
      {
       OFFSET 0.000000 9.732643 -0.022378
       CHANNELS 3 Yrotation Xrotation Zrotation
       End Site
       {
        OFFSET 0.000000 18.603619 -0.011814
       }
      }
     }
     JOINT RightCollar
     {
      OFFSET -3.167735 10.388953 0.000000
      CHANNELS 3 Yrotation Xrotation Zrotation
      JOINT RightShoulder
      {
       OFFSET -14.584825 0.000000 0.000000
       CHANNELS 3 Yrotation Xrotation Zrotation
       JOINT RightElbow
       {
        OFFSET 0.000000 -31.921689 0.000000
        CHANNELS 3 Yrotation Xrotation Zrotation
        JOINT RightWrist
        {
         OFFSET 0.000000 -25.835217 0.000000
         CHANNELS 3 Yrotation Xrotation Zrotation
         End Site
         {
          OFFSET 0.000000 -19.128920 0.000000
         }
        }
       }
      }
     }
     JOINT LeftCollar
     {
      OFFSET 3.167735 10.388953 0.000000
      CHANNELS 3 Yrotation Xrotation Zrotation
      JOINT LeftShoulder
      {
       OFFSET 14.584825 0.000000 0.000000
       CHANNELS 3 Yrotation Xrotation Zrotation
       JOINT LeftElbow
       {
        OFFSET 0.000000 -31.921689 0.000000
        CHANNELS 3 Yrotation Xrotation Zrotation
        JOINT LeftWrist
        {
         OFFSET 0.000000 -25.835217 0.000000
         CHANNELS 3 Yrotation Xrotation Zrotation
         End Site
         {
          OFFSET 0.000000 -19.128920 0.000000
         }
        }
       }
      }
     }
    }
   }
  }
 }
 JOINT RightHip
 {
  OFFSET -8.403278 -0.025659 -0.002592
  CHANNELS 3 Yrotation Xrotation Zrotation
  JOINT RightKnee
  {
   OFFSET 0.000000 -44.040977 0.002477
   CHANNELS 3 Yrotation Xrotation Zrotation
   JOINT RightAnkle
   {
    OFFSET 0.000000 -42.951162 0.004189
    CHANNELS 3 Yrotation Xrotation Zrotation
    JOINT RightToe
    {
     OFFSET 0.000000 -5.494238 12.197485
     CHANNELS 3 Yrotation Xrotation Zrotation
     End Site
     {
      OFFSET 0.000000 -1.538716 6.371628
     }
    }
   }
  }
 }
 JOINT LeftHip
 {
  OFFSET 8.403278 -0.025659 -0.002592
  CHANNELS 3 Yrotation Xrotation Zrotation
  JOINT LeftKnee
  {
   OFFSET 0.000000 -44.040977 0.002477
   CHANNELS 3 Yrotation Xrotation Zrotation
   JOINT LeftAnkle
   {
    OFFSET 0.000000 -42.951162 0.004189
    CHANNELS 3 Yrotation Xrotation Zrotation
    JOINT LeftToe
    {
     OFFSET 0.000000 -5.494238 12.197485
     CHANNELS 3 Yrotation Xrotation Zrotation
     End Site
     {
      OFFSET 0.000000 -1.538716 6.371628
     }
    }
   }
  }
 }
}
MOTION
Frames: 12
Frame Time: 0.008333
40.057891 24.012006 13.507291 -158.441456 84.969589 64.759280 -6.160163 0.854916 -9.865510 -0.426158 0.095383 -0.686902 -0.731256 0.160384 -1.177995 -5.650822 0.839144 -9.038881 -6.603503 -4.351956 8.931155 -22.377602 -41.274537 25.813427 10.734639 -20.001049 -19.687257 51.299315 -66.028550 -97.408668 -26.502099 -15.767293 -6.459330 -12.419898 -22.418865 -17.339443 16.497459 -2.768603 17.642576 -19.095062 25.585827 0.409925 -29.653672 -61.528948 -46.319219 1.330880 -31.794927 14.133361 -16.226453 4.591578 5.479794 -14.865576 -6.117401 -1.345522 12.066177 6.075534 13.529534 -0.000743 -0.011575 -0.003305 9.027587 -1.311209 5.930601 18.024712 -1.403016 1.293300 -18.329933 10.555716 -19.809323 0.010063 0.024515 0.015228
40.063054 24.031892 13.523265 -158.454833 84.960789 64.737773 -6.155880 0.863957 -9.863907 -0.425545 0.095824 -0.686537 -0.730223 0.161149 -1.177395 -5.645452 0.845843 -9.037882 -6.597352 -4.341875 8.919719 -22.349616 -41.262330 25.777593 10.734403 -20.011312 -19.693575 51.312889 -66.015348 -97.436230 -26.503926 -15.755548 -6.456886 -12.422037 -22.421667 -17.340239 16.494867 -2.765566 17.670759 -19.143622 25.563354 0.373571 -29.601094 -61.512692 -46.339056 1.332475 -31.794605 14.127752 -16.220100 4.598262 5.486300 -14.862156 -6.114736 -1.346597 12.071047 6.075134 13.530805 -0.007748 -0.014532 -0.009808 9.024714 -1.323971 5.929332 18.023210 -1.436960 1.281431 -18.335157 10.556786 -19.819765 0.018484 0.025550 0.024441
40.068543 24.046395 13.540060 -158.498917 84.953725 64.687979 -6.151533 0.872940 -9.863091 -0.424915 0.096278 -0.686190 -0.729161 0.161937 -1.176826 -5.639837 0.852730 -9.037081 -6.591555 -4.332262 8.913392 -22.326405 -41.249177 25.753567 10.741133 -20.024358 -19.703760 51.328000 -66.000205 -97.469134 -26.498181 -15.740622 -6.461067 -12.416910 -22.433469 -17.339022 16.495916 -2.762297 17.694434 -19.189796 25.541746 0.344498 -29.541114 -61.497087 -46.368664 1.332988 -31.792451 14.123084 -16.213599 4.607341 5.489651 -14.860883 -6.115233 -1.350744 12.080956 6.076404 13.535807 -0.013350 -0.016298 -0.014730 9.027404 -1.332517 5.924834 18.024613 -1.478993 1.268372 -18.344359 10.561276 -19.836602 0.026867 0.025477 0.033395
40.074099 24.055354 13.557466 -158.564349 84.947798 64.619849 -6.147784 0.881023 -9.863716 -0.424423 0.096722 -0.686030 -0.728330 0.162704 -1.176568 -5.635147 0.859174 -9.037315 -6.586435 -4.323859 8.911990 -22.309001 -41.236359 25.741633 10.753259 -20.039344 -19.716152 51.342006 -65.983594 -97.500257 -26.482860 -15.726521 -6.472145 -12.407055 -22.445246 -17.344104 16.500616 -2.758818 17.713771 -19.235807 25.521616 0.318051 -29.477649 -61.480095 -46.400978 1.335877 -31.788407 14.116832 -16.207633 4.615953 5.486838 -14.858953 -6.114067 -1.354338 12.091959 6.077502 13.541604 -0.017703 -0.017209 -0.018149 9.036532 -1.338348 5.915578 18.028951 -1.527057 1.257170 -18.359900 10.568446 -19.859763 0.034793 0.024698 0.041498
40.079735 24.057857 13.575280 -158.653759 84.941936 64.529563 -6.144931 0.888883 -9.865319 -0.424132 0.097222 -0.686109 -0.727837 0.163564 -1.176707 -5.631944 0.865932 -9.038797 -6.581922 -4.317131 8.914567 -22.296840 -41.225034 25.739929 10.770504 -20.054849 -19.729005 51.349365 -65.967885 -97.522006 -26.457031 -15.715724 -6.492004 -12.398071 -22.450859 -17.354832 16.508273 -2.755016 17.728737 -19.281165 25.501598 0.293560 -29.409633 -61.462967 -46.437560 1.338412 -31.782313 14.112311 -16.201801 4.623975 5.478849 -14.857866 -6.108724 -1.355593 12.101589 6.078196 13.544479 -0.019465 -0.017423 -0.018984 9.050570 -1.342748 5.903239 18.035960 -1.576261 1.249645 -18.381238 10.573708 -19.889485 0.042324 0.024110 0.049155
40.085285 24.052279 13.592858 -158.761613 84.933595 64.423291 -6.144343 0.896812 -9.867938 -0.424137 0.097815 -0.686446 -0.727840 0.164577 -1.177272 -5.631224 0.873357 -9.041373 -6.576736 -4.311827 8.918798 -22.285263 -41.215929 25.742248 10.790113 -20.070234 -19.737069 51.363127 -65.953191 -97.543587 -26.421124 -15.704612 -6.521723 -12.391975 -22.449426 -17.370969 16.518198 -2.749452 17.739093 -19.320063 25.481787 0.274884 -29.339827 -61.446429 -46.480768 1.337107 -31.774000 14.112609 -16.197706 4.632916 5.467815 -14.858785 -6.101659 -1.358274 12.106390 6.077804 13.543667 -0.016792 -0.015977 -0.015554 9.066391 -1.344406 5.887671 18.044763 -1.626427 1.245028 -18.407244 10.575751 -19.922098 0.048365 0.023532 0.055555
40.090822 24.036666 13.609592 -158.859181 84.921137 64.329063 -6.147089 0.903970 -9.871592 -0.424505 0.098445 -0.686989 -0.728457 0.165647 -1.178175 -5.633878 0.880678 -9.044430 -6.569994 -4.307702 8.922999 -22.270956 -41.209440 25.744086 10.806583 -20.085987 -19.738405 51.392072 -65.940727 -97.569088 -26.384047 -15.691118 -6.553435 -12.387737 -22.444219 -17.391591 16.528163 -2.740191 17.746427 -19.347267 25.463138 0.262814 -29.280307 -61.428343 -46.521311 1.330467 -31.767731 14.117579 -16.199035 4.641967 5.454604 -14.859814 -6.092767 -1.361218 12.103860 6.074982 13.538407 -0.010102 -0.012938 -0.008357 9.081077 -1.343918 5.870723 18.055793 -1.678686 1.240146 -18.437618 10.578076 -19.957373 0.053401 0.022186 0.060975
40.097089 24.009197 13.625449 -158.918564 84.906856 64.269507 -6.152191 0.909304 -9.872315 -0.425046 0.098946 -0.687385 -0.729371 0.166497 -1.178827 -5.638848 0.886258 -9.045795 -6.561762 -4.304790 8.925779 -22.253079 -41.206056 25.742449 10.818815 -20.100812 -19.741535 51.426143 -65.932302 -97.588788 -26.362301 -15.675771 -6.579811 -12.383782 -22.440014 -17.406485 16.536735 -2.728221 17.751625 -19.363953 25.447565 0.255915 -29.230131 -61.410956 -46.561127 1.318393 -31.766297 14.126657 -16.204429 4.649758 5.444772 -14.862961 -6.080587 -1.359832 12.096362 6.069753 13.527949 -0.001001 -0.009522 0.000068 9.094473 -1.344660 5.857864 18.067265 -1.733737 1.234781 -18.468402 10.581901 -19.996150 0.057360 0.020732 0.065155
40.104513 23.968674 13.640208 -158.954450 84.893961 64.227369 -6.157555 0.913054 -9.868380 -0.425510 0.099280 -0.687433 -0.730159 0.167064 -1.178898 -5.643976 0.890041 -9.044682 -6.552106 -4.302476 8.927100 -22.231372 -41.204671 25.736922 10.828876 -20.113064 -19.750068 51.461438 -65.924706 -97.603674 -26.369557 -15.659207 -6.595668 -12.377896 -22.437110 -17.411803 16.542092 -2.718524 17.756573 -19.374123 25.438630 0.249990 -29.183840 -61.396397 -46.603739 1.303302 -31.765805 14.137893 -16.207880 4.657218 5.440969 -14.872201 -6.066448 -1.352585 12.088531 6.064466 13.515295 0.008014 -0.006967 0.007143 9.108142 -1.347140 5.851448 18.076390 -1.790745 1.230046 -18.493790 10.586208 -20.033054 0.057987 0.019747 0.065782
40.113041 23.916188 13.653512 -158.978335 84.881932 64.192273 -6.163899 0.916595 -9.861858 -0.425913 0.099530 -0.687105 -0.730852 0.167491 -1.178339 -5.649583 0.893120 -9.040805 -6.539720 -4.299958 8.928058 -22.203268 -41.203932 25.728482 10.840096 -20.122702 -19.760039 51.504848 -65.915127 -97.624894 -26.402267 -15.646335 -6.598603 -12.372591 -22.433781 -17.411151 16.544166 -2.714012 17.761622 -19.380014 25.436027 0.240567 -29.147124 -61.384424 -46.639938 1.289083 -31.763455 14.147288 -16.208178 4.665876 5.442565 -14.886639 -6.054422 -1.344462 12.083239 6.061263 13.506023 0.014577 -0.005875 0.011945 9.119593 -1.351285 5.850290 18.080931 -1.846412 1.226707 -18.509073 10.590381 -20.066326 0.055541 0.019030 0.063211
40.122596 23.856359 13.665419 -158.970595 84.870895 64.185092 -6.172501 0.919358 -9.853717 -0.426355 0.099648 -0.686406 -0.731619 0.167695 -1.177157 -5.656743 0.894757 -9.033886 -6.523218 -4.295843 8.929209 -22.165275 -41.201627 25.716504 10.854101 -20.131131 -19.770845 51.550027 -65.908934 -97.646824 -26.441776 -15.644234 -6.591717 -12.370515 -22.429743 -17.409999 16.546780 -2.713869 17.763754 -19.381384 25.437642 0.229456 -29.127792 -61.374723 -46.661391 1.276350 -31.759538 14.152041 -16.208186 4.674086 5.450371 -14.901555 -6.047464 -1.340233 12.080250 6.060444 13.501454 0.018872 -0.005713 0.015082 9.125674 -1.360018 5.853445 18.081136 -1.897148 1.223420 -18.512898 10.593176 -20.093912 0.050854 0.018643 0.058542
40.132658 23.795353 13.675877 -158.955696 84.862284 64.185810 -6.181763 0.921302 -9.847129 -0.426823 0.099673 -0.685757 -0.732430 0.167739 -1.176057 -5.663986 0.895109 -9.027283 -6.503504 -4.288709 8.931760 -22.119401 -41.194543 25.703443 10.869161 -20.141091 -19.781728 51.580142 -65.910238 -97.654881 -26.474904 -15.655138 -6.576619 -12.370127 -22.425350 -17.417074 16.551497 -2.717815 17.764575 -19.375976 25.443603 0.224681 -29.126777 -61.370316 -46.670968 1.262378 -31.754916 14.153399 -16.208251 4.681055 5.459069 -14.911098 -6.045124 -1.339866 12.077288 6.060978 13.499382 0.021424 -0.005715 0.017062 9.127694 -1.371498 5.857932 18.077004 -1.941249 1.217016 -18.505486 10.595113 -20.111700 0.044219 0.017946 0.052018
